<svg xmlns="http://www.w3.org/2000/svg" width="200" height="40" fill="none" class="UserLogo variant-- " preserveAspectRatio="xMidYMid meet" viewBox="0 0 200 40"><path fill="var(--userLogoColor, #003478)" d="M99.754 4.5C76.3 4.5 57.5 11.53 57.5 20.344c0 8.76 18.955 15.845 42.254 15.845s42.255-7.108 42.255-15.845S123.053 4.5 99.754 4.5z"></path><path fill="var(--userLogoColorAltNoTransparency, #fff)" d="M116.398 23.7c.011.073.106.143.199.176.034.011.05.034.015.11-.263.565-.505.89-.835 1.38a5.184 5.184 0 01-1.059 1.146c-.624.516-1.491 1.078-2.207.7-.319-.165-.456-.61-.45-.97.015-1.015.466-2.056 1.299-3.08 1.016-1.25 2.138-1.898 2.875-1.543.762.363.519 1.246.178 1.939a.188.188 0 00-.015.142zm8.18-7.9c.054-.098-.003-.168-.125-.168l-2.136.001c-.158 0-.24.02-.314.167-.245.469-3.229 4.941-3.784 5.81-.094.132-.208.113-.222-.038-.056-.516-.501-1.11-1.203-1.393-.535-.217-1.058-.256-1.602-.184-.981.132-1.856.65-2.624 1.234-1.159.88-2.159 2.022-3.449 2.866-.705.459-1.669.86-2.315.262-.584-.542-.518-1.745.376-2.675.094-.098.207-.016.189.071-.084.42.019.84.339 1.133.39.35.948.389 1.425.155.564-.279.895-.818.992-1.43.149-.95-.582-1.787-1.496-1.855-.743-.052-1.456.207-2.15.78a4.121 4.121 0 00-.847.93c-.073.105-.186.116-.182-.04.034-1.215-.469-1.9-1.473-1.922-.781-.019-1.614.405-2.264.923-.712.572-1.334 1.33-2.002 2.042-.083.087-.155.083-.179-.087-.019-.805-.222-1.585-.595-2.14a.496.496 0 00-.643-.157c-.108.059-.482.23-.755.45-.135.112-.188.273-.128.48a5.627 5.627 0 01-.208 3.727c-.448 1.059-1.32 2.013-2.343 2.336-.675.214-1.376.11-1.81-.489-.596-.825-.355-2.26.533-3.452.784-1.05 1.918-1.717 3.05-2.146.132-.051.16-.137.122-.25-.061-.186-.16-.439-.2-.554-.103-.277-.393-.321-.748-.283-.822.096-1.563.377-2.296.77-1.918 1.027-2.88 3.014-3.3 4.078-.203.51-.377.829-.601 1.112-.303.38-.682.726-1.376 1.335a.243.243 0 00-.057.28c.07.147.432.657.534.703.113.055.244-.023.296-.06.486-.33 1.067-.851 1.351-1.205.1-.121.203-.07.255.114.266.946.96 1.72 1.921 2.043 1.759.593 3.583-.266 4.96-1.76.874-.95 1.19-1.56 1.525-1.976.569-.704 1.69-2.28 3.025-3.29.49-.374 1.069-.658 1.361-.47.234.152.309.504-.066 1.187-1.362 2.486-3.365 5.407-3.732 6.115-.067.123-.008.22.12.22.713-.004 1.419-.002 2.066-.002.107-.004.155-.054.209-.13 1.045-1.636 2.028-3.192 3.082-4.802.059-.095.114-.022.116.02.023.373.113.883.335 1.219.399.62.963.886 1.589.89.499.008.751-.07 1.288-.27a4.5 4.5 0 001.057-.568c.158-.11.185.074.181.102-.241 1.298.057 2.836 1.348 3.474 1.544.762 3.24-.308 4.217-1.275.095-.093.198-.083.207.118.023.369.188.807.493 1.113.818.82 2.469.495 4.126-.787 1.063-.82 2.176-1.98 3.181-3.209.038-.048.065-.124-.007-.201-.153-.16-.375-.344-.527-.485-.069-.059-.17-.042-.229.002-1.03.98-1.958 2.098-3.298 3.022-.452.315-1.173.57-1.497.132-.126-.17-.112-.405.012-.714.391-.975 6.579-10.397 6.9-10.953"></path><path fill="var(--userLogoColorAltNoTransparency, #fff)" d="M95.462 16.936c.026.14.08.167.144.155.315-.063.66-.322.865-.623.185-.273.273-.666.088-.823-.165-.142-.433-.102-.632.074a1.4 1.4 0 00-.465 1.217zM79.689 29.064c-2.308.015-4.34-1.41-4.574-3.878a4.982 4.982 0 011.031-3.592c.687-.895 1.85-1.638 2.833-1.82.32-.058.75-.023.928.19.28.325.2.682-.08.824-.75.383-1.654 1.04-2.1 1.935-.363.731-.436 1.613.118 2.452.926 1.4 3.51 1.438 5.91-.794a20.659 20.659 0 001.669-1.692c1.058-1.21 1.41-1.65 2.816-3.6.015-.023.022-.052.015-.067-.012-.026-.03-.03-.072-.034-.94.027-1.758.306-2.553.9-.229.167-.559.144-.703-.076-.16-.249-.045-.572.219-.755 1.28-.89 2.677-1.051 4.105-1.292-.001 0 .099.003.18-.104.586-.752 1.029-1.43 1.654-2.19.629-.773 1.442-1.481 2.063-2.014.867-.745 1.423-.996 1.988-1.303.15-.078-.019-.171-.064-.171-3.155-.593-6.435-1.36-9.568-.2-2.17.81-3.121 2.53-2.664 3.68.326.816 1.398.948 2.403.457a5.43 5.43 0 002.153-1.916c.306-.47.952-.13.603.687-.917 2.155-2.669 3.865-4.802 3.937-1.816.059-2.988-1.277-2.984-2.925.007-3.251 3.626-5.392 7.43-5.712 4.58-.379 8.918.841 13.466 1.393 3.484.422 6.825.43 10.327-.374.414-.09.704.174.677.592-.034.605-.502 1.187-1.655 1.816-1.312.72-2.685.938-4.118.95-3.466.03-6.694-1.323-10.035-2.049.004.147.042.32-.08.413-1.85 1.365-3.524 2.751-4.644 4.698-.038.045-.019.088.048.083.973-.051 1.847-.076 2.756-.149.158-.015.164-.053.15-.169-.08-.67.116-1.436.706-1.962.604-.542 1.36-.604 1.862-.213.57.444.52 1.243.208 1.842-.317.608-.842.933-1.345 1.091 0 0-.106.023-.09.119.02.153.706.533.764.634.057.097.027.246-.076.36a.433.433 0 01-.332.159c-.118-.003-.19-.043-.34-.125-.307-.166-.692-.44-.948-.763-.088-.11-.132-.112-.35-.1a63 63 0 00-3.553.335c-.252.03-.289.078-.34.165-1.656 2.73-3.423 5.673-5.364 7.644-2.08 2.113-3.81 2.669-5.647 2.683"></path><path fill="var(--userLogoColorAltNoTransparency, #fff)" d="M99.753 7.091c-21.576 0-39.066 5.963-39.066 13.259s17.49 13.259 39.066 13.259c21.577 0 39.065-5.963 39.065-13.26 0-7.295-17.488-13.258-39.065-13.258zm0 27.72c-22.362 0-40.49-6.475-40.49-14.461 0-7.988 18.128-14.461 40.49-14.461 22.36 0 40.487 6.473 40.487 14.46 0 7.987-18.127 14.461-40.487 14.461z"></path><title>Ford logo</title></svg>